<?xml version="1.0" encoding="UTF-8" standalone="no"?>
<svg
   height="48px"
   viewBox="0 -960 960 960"
   width="48px"
   fill="#5985E1"
   version="1.1"
   id="svg1"
   sodipodi:docname="key_add_48dp_5985E1_FILL0_wght400_GRAD0_opsz48.svg"
   inkscape:version="1.4.2 (f4327f4, 2025-05-13)"
   xmlns:inkscape="http://www.inkscape.org/namespaces/inkscape"
   xmlns:sodipodi="http://sodipodi.sourceforge.net/DTD/sodipodi-0.dtd"
   xmlns:xlink="http://www.w3.org/1999/xlink"
   xmlns="http://www.w3.org/2000/svg"
   xmlns:svg="http://www.w3.org/2000/svg">
  <defs
     id="defs1" />
  <sodipodi:namedview
     id="namedview1"
     pagecolor="#ffffff"
     bordercolor="#000000"
     borderopacity="0.25"
     inkscape:showpageshadow="2"
     inkscape:pageopacity="0.0"
     inkscape:pagecheckerboard="0"
     inkscape:deskcolor="#d1d1d1"
     inkscape:zoom="18.90625"
     inkscape:cx="30.704132"
     inkscape:cy="37.104132"
     inkscape:window-width="3840"
     inkscape:window-height="2054"
     inkscape:window-x="-11"
     inkscape:window-y="-11"
     inkscape:window-maximized="1"
     inkscape:current-layer="svg1" />
  <path
     d="M280-412q-28 0-48-20t-20-48q0-28 20-48t48-20q28 0 48 20t20 48q0 28-20 48t-48 20Zm0 172q-100 0-170-70T40-480q0-100 70-170t170-70q72 0 126 34t85 103h356l113 113-167 153-88-64-88 64-75-60h-51q-25 60-78.5 98.5T280-240Zm0-60q58 0 107-38.5t63-98.5h114l54 45 88-63 82 62 85-79-51-51H450q-12-56-60-96.5T280-660q-75 0-127.5 52.5T100-480q0 75 52.5 127.5T280-300Z"
     id="path1" />
  <rect
     style="fill:#5985e1;fill-opacity:1;stroke-width:20"
     id="rect1"
     width="44.429749"
     height="250.18182"
     x="681.25623"
     y="-912.9256"
     ry="15.867768" />
  <use
     x="0"
     y="0"
     xlink:href="#rect1"
     id="use1"
     transform="rotate(90,703.47108,-787.8347)" />
</svg>
